<?xml version="1.0" encoding="utf-8"?>
<!-- Generator: Adobe Illustrator 16.0.0, SVG Export Plug-In . SVG Version: 6.00 Build 0)  -->
<!DOCTYPE svg PUBLIC "-//W3C//DTD SVG 1.1//EN" "http://www.w3.org/Graphics/SVG/1.1/DTD/svg11.dtd">
<svg version="1.1" id="Layer_1" xmlns="http://www.w3.org/2000/svg" xmlns:xlink="http://www.w3.org/1999/xlink" x="0px" y="0px"
	 width="91px" height="27px" viewBox="0 0 91 27" enable-background="new 0 0 91 27" xml:space="preserve">
<g>
	<path fill="#2DC4EB" d="M12.5,0v0.05C5.513,0.564,0,6.381,0,13.5c0,7.118,5.513,12.936,12.5,13.449V27h30V0H12.5z"/>
	<path fill="#56C9ED" d="M45.5,0H28.778C25.794,3.691,24,8.384,24,13.5s1.794,9.809,4.777,13.5H45.5C52.957,27,59,20.956,59,13.5
		S52.957,0,45.5,0z"/>
	<path fill="#D1D7D9" d="M78.5,27v-0.051C85.487,26.436,91,20.618,91,13.5S85.487,0.564,78.5,0.051V0h-30v27H78.5z"/>
	<path fill="#AEBABD" d="M45.5,27h16.723C65.206,23.309,67,18.616,67,13.5S65.206,3.691,62.223,0H45.5C38.043,0,32,6.044,32,13.5
		S38.043,27,45.5,27z"/>
	<circle fill="#FFFFFF" cx="45.5" cy="13.5" r="11.5"/>
</g>
</svg>
